<svg width="20" height="20" viewBox="0 0 20 20" fill="none" xmlns="http://www.w3.org/2000/svg">
<path d="M4.16683 18.3333C3.94582 18.3333 3.73385 18.2455 3.57757 18.0893C3.42129 17.933 3.3335 17.721 3.3335 17.5V10.8333C3.3335 10.6123 3.42129 10.4004 3.57757 10.2441C3.73385 10.0878 3.94582 10 4.16683 10C4.38784 10 4.5998 10.0878 4.75609 10.2441C4.91237 10.4004 5.00016 10.6123 5.00016 10.8333V17.5C5.00016 17.721 4.91237 17.933 4.75609 18.0893C4.5998 18.2455 4.38784 18.3333 4.16683 18.3333ZM8.3335 18.3333C8.11248 18.3333 7.90052 18.2455 7.74424 18.0893C7.58796 17.933 7.50016 17.721 7.50016 17.5V2.5C7.50016 2.27899 7.58796 2.06703 7.74424 1.91075C7.90052 1.75447 8.11248 1.66667 8.3335 1.66667C8.55451 1.66667 8.76647 1.75447 8.92275 1.91075C9.07903 2.06703 9.16683 2.27899 9.16683 2.5V17.5C9.16683 17.721 9.07903 17.933 8.92275 18.0893C8.76647 18.2455 8.55451 18.3333 8.3335 18.3333ZM12.5002 18.3333C12.2791 18.3333 12.0672 18.2455 11.9109 18.0893C11.7546 17.933 11.6668 17.721 11.6668 17.5V7.5C11.6668 7.27899 11.7546 7.06703 11.9109 6.91075C12.0672 6.75447 12.2791 6.66667 12.5002 6.66667C12.7212 6.66667 12.9331 6.75447 13.0894 6.91075C13.2457 7.06703 13.3335 7.27899 13.3335 7.5V17.5C13.3335 17.721 13.2457 17.933 13.0894 18.0893C12.9331 18.2455 12.7212 18.3333 12.5002 18.3333ZM16.6668 18.3333C16.4458 18.3333 16.2339 18.2455 16.0776 18.0893C15.9213 17.933 15.8335 17.721 15.8335 17.5V14.1667C15.8335 13.9457 15.9213 13.7337 16.0776 13.5774C16.2339 13.4211 16.4458 13.3333 16.6668 13.3333C16.8878 13.3333 17.0998 13.4211 17.2561 13.5774C17.4124 13.7337 17.5002 13.9457 17.5002 14.1667V17.5C17.5002 17.721 17.4124 17.933 17.2561 18.0893C17.0998 18.2455 16.8878 18.3333 16.6668 18.3333Z" fill="#424242"/>
</svg>
