<svg width="20" height="20" viewBox="0 0 20 20" fill="none" xmlns="http://www.w3.org/2000/svg">
<path d="M7.0835 15.33V12.9167H5.41683C5.19582 12.9167 4.98385 12.8289 4.82757 12.6726C4.67129 12.5163 4.5835 12.3044 4.5835 12.0833V6.25001C4.5835 6.02899 4.67129 5.81703 4.82757 5.66075C4.98385 5.50447 5.19582 5.41667 5.41683 5.41667H14.5835C14.8045 5.41667 15.0165 5.50447 15.1728 5.66075C15.329 5.81703 15.4168 6.02899 15.4168 6.25001V12.0833C15.4168 12.3044 15.329 12.5163 15.1728 12.6726C15.0165 12.8289 14.8045 12.9167 14.5835 12.9167H10.0002L7.43933 15.4775C7.41019 15.5067 7.37304 15.5266 7.33258 15.5347C7.29211 15.5428 7.25017 15.5386 7.21205 15.5228C7.17394 15.507 7.14137 15.4803 7.11849 15.4459C7.0956 15.4116 7.08342 15.3713 7.0835 15.33Z" stroke="#424242"/>
<path d="M7.0835 10.4167H12.9168M7.0835 7.91667H12.9168" stroke="#424242" stroke-linecap="round"/>
</svg>
