<svg width="24" height="19" viewBox="0 0 24 19" fill="none" xmlns="http://www.w3.org/2000/svg">
<path fill-rule="evenodd" clip-rule="evenodd" d="M8.09284 0.00936468C8.02562 -0.00122532 7.95729 -0.0028454 7.88964 0.0045646C6.54404 0.150165 4.49605 0.876565 3.28644 1.53256C3.20655 1.57614 3.13504 1.63356 3.07524 1.70216C2.57284 2.27656 2.11684 3.21256 1.76004 4.09896C1.39204 5.00776 1.08804 5.96776 0.916841 6.66216C0.350441 8.91817 0.0416409 11.627 4.09168e-05 14.1966C-0.00128258 14.3248 0.0295208 14.4513 0.0896412 14.5646C0.569641 15.4814 1.60484 16.331 2.64164 16.9518C3.68964 17.5806 4.91364 18.0766 5.89924 18.1726C6.01733 18.1839 6.13643 18.1676 6.24719 18.1252C6.35795 18.0827 6.45737 18.0151 6.53764 17.9278C6.78405 17.6606 7.20324 17.0366 7.52004 16.5518C7.66404 16.331 7.80004 16.1198 7.90564 15.9518C8.96484 16.1438 10.2929 16.2558 11.9729 16.2558C13.6497 16.2558 14.9777 16.1438 16.0369 15.9518C16.1425 16.1214 16.2769 16.331 16.4209 16.5502C16.7377 17.0366 17.1569 17.6606 17.4049 17.9278C17.4852 18.0151 17.5846 18.0827 17.6953 18.1252C17.8061 18.1676 17.9252 18.1839 18.0433 18.1726C19.0289 18.0766 20.2513 17.5806 21.2993 16.9518C22.3361 16.331 23.3713 15.4814 23.8529 14.5646C23.9125 14.4512 23.9427 14.3247 23.9409 14.1966C23.9009 11.627 23.5905 8.91656 23.0273 6.66056C22.801 5.78925 22.5182 4.93358 22.1809 4.09896C21.8241 3.21256 21.3681 2.27496 20.8673 1.70216C20.807 1.63341 20.7349 1.57598 20.6545 1.53256C19.4465 0.876565 17.3985 0.150165 16.0513 0.0045646C15.9842 -0.0027054 15.9164 -0.00108532 15.8497 0.00936468C15.5481 0.0673947 15.2653 0.198115 15.0257 0.390165C14.489 0.822225 14.055 1.36819 13.7553 1.98856C13.1623 1.94205 12.5677 1.9191 11.9729 1.91976C11.3297 1.91976 10.7345 1.94376 10.1857 1.98696C9.88568 1.36717 9.45176 0.821765 8.91524 0.390165C8.67609 0.198345 8.39383 0.0676447 8.09284 0.00936468ZM17.6017 15.5486C17.8269 15.8954 18.0578 16.2384 18.2945 16.5774C18.9281 16.4334 19.7361 16.0974 20.5105 15.6334C21.3793 15.1134 22.0689 14.5134 22.4017 14.0062C22.3489 11.5966 22.0513 9.09416 21.5377 7.03336C21.3285 6.23071 21.0677 5.44241 20.7569 4.67336C20.4369 3.87656 20.0929 3.20136 19.7937 2.81416C18.7537 2.27496 17.1137 1.70536 16.0449 1.55016C16.0127 1.56967 15.9817 1.59104 15.9521 1.61416C15.8195 1.71846 15.6983 1.83645 15.5905 1.96616C15.5274 2.04127 15.4671 2.11865 15.4097 2.19816C15.8977 2.28776 16.3329 2.39496 16.7185 2.51336C17.8129 2.84936 18.6017 3.31336 18.9873 3.82696C19.1095 3.98991 19.162 4.19473 19.1332 4.39637C19.1044 4.59801 18.9966 4.77995 18.8337 4.90216C18.753 4.96268 18.6612 5.0067 18.5635 5.03173C18.4658 5.05677 18.3641 5.06231 18.2643 5.04804C18.0626 5.01924 17.8807 4.91151 17.7585 4.74856C17.6641 4.62376 17.2529 4.28456 16.2673 3.98056C15.3153 3.68936 13.9153 3.45576 11.9729 3.45576C10.0305 3.45576 8.62885 3.68936 7.67844 3.98216C6.69284 4.28616 6.28164 4.62216 6.18724 4.74856C6.12673 4.82925 6.05092 4.89722 5.96414 4.94861C5.87735 4.99999 5.7813 5.03378 5.68146 5.04804C5.47982 5.07685 5.27499 5.02437 5.11204 4.90216C5.03136 4.84165 4.96339 4.76584 4.912 4.67905C4.86062 4.59227 4.82683 4.49621 4.81256 4.39637C4.78376 4.19473 4.83623 3.98991 4.95844 3.82696C5.34404 3.31176 6.13284 2.85096 7.22724 2.51496C7.61124 2.39496 8.04644 2.28936 8.53284 2.19976C8.47533 2.11938 8.41448 2.04145 8.35044 1.96616C8.24312 1.83653 8.12245 1.71855 7.99045 1.61416C7.96027 1.59099 7.92874 1.56962 7.89605 1.55016C6.82884 1.70536 5.18884 2.27496 4.14884 2.81416C3.84804 3.20296 3.50564 3.87656 3.18404 4.67336C2.84324 5.52136 2.56004 6.41256 2.40484 7.03336C1.88964 9.09416 1.59204 11.5966 1.54084 14.0062C1.87364 14.515 2.56164 15.1134 3.43044 15.635C4.20644 16.099 5.01284 16.435 5.64804 16.5774C5.88709 16.24 6.11809 15.897 6.34084 15.5486C5.08484 15.1022 4.41124 14.4894 3.97284 13.8334C3.91695 13.7494 3.87816 13.6551 3.85869 13.5561C3.83922 13.457 3.83944 13.3551 3.85935 13.2562C3.87926 13.1572 3.91846 13.0632 3.97472 12.9794C4.03098 12.8956 4.1032 12.8237 4.18724 12.7678C4.27129 12.7119 4.36552 12.6731 4.46456 12.6536C4.5636 12.6342 4.6655 12.6344 4.76445 12.6543C4.8634 12.6742 4.95746 12.7134 5.04126 12.7697C5.12506 12.8259 5.19695 12.8982 5.25284 12.9822C5.66884 13.6094 6.76324 14.7198 11.9729 14.7198C17.1841 14.7198 18.2769 13.6094 18.6929 12.9822C18.8058 12.8125 18.9814 12.6945 19.1813 12.6543C19.3811 12.6141 19.5887 12.6549 19.7585 12.7678C19.9282 12.8807 20.0462 13.0564 20.0864 13.2562C20.1266 13.456 20.0858 13.6637 19.9729 13.8334C19.5345 14.4894 18.8593 15.1038 17.6017 15.5486ZM6.50084 8.30696C6.89124 7.88776 7.42084 7.65097 7.97284 7.64777C8.52485 7.65097 9.05445 7.88776 9.44485 8.30696C9.83364 8.72777 10.0529 9.29576 10.0529 9.88776C10.0529 10.4798 9.83364 11.0478 9.44485 11.4686C9.05445 11.8878 8.52485 12.1246 7.97284 12.1278C7.69537 12.1249 7.42148 12.0648 7.16823 11.9514C6.91498 11.838 6.6878 11.6737 6.50084 11.4686C6.10662 11.0369 5.88953 10.4724 5.89284 9.88776C5.89284 9.29576 6.11204 8.72777 6.50084 8.30696ZM15.9729 7.64777C15.4209 7.65097 14.8913 7.88776 14.5009 8.30696C14.1121 8.72777 13.8929 9.29576 13.8929 9.88776C13.8929 10.4798 14.1121 11.0478 14.5009 11.4686C14.8913 11.8878 15.4209 12.1246 15.9729 12.1278C16.5249 12.1246 17.0545 11.8878 17.4449 11.4686C17.8337 11.0478 18.0529 10.4798 18.0529 9.88776C18.0529 9.29576 17.8337 8.72777 17.4449 8.30696C17.2579 8.10186 17.0308 7.93756 16.7775 7.82416C16.5242 7.71076 16.2504 7.65067 15.9729 7.64777Z" fill="#616161"/>
</svg>
