<svg width="24" height="24" viewBox="0 0 24 24" fill="none" xmlns="http://www.w3.org/2000/svg">
<path fill-rule="evenodd" clip-rule="evenodd" d="M9.30333 2.59937C8.48871 2.59937 7.7512 2.89014 7.15681 3.31436C6.40415 3.82972 6.00658 4.55784 5.75293 5.23821L5.74538 5.25846L5.74006 5.2794C5.54558 6.04448 5.53863 6.89907 5.81072 7.6334C6.01673 8.23849 6.34674 8.76937 6.80483 9.18254C6.49681 9.46193 6.2016 9.80103 6.00483 10.2233C5.74148 10.7884 5.60789 11.3602 5.60789 11.9994C5.60789 12.6386 5.74148 13.2104 6.00483 13.7755C6.20027 14.1949 6.46518 14.5375 6.79177 14.8281C6.33905 15.2408 6.01273 15.7693 5.80881 16.371C5.54126 17.1604 5.54377 17.9472 5.74006 18.7194C5.94446 19.5235 6.42025 20.1741 7.07781 20.6703C7.70465 21.1894 8.51815 21.3994 9.24341 21.3994C10.2018 21.3994 11.1308 20.9618 11.844 20.3357L11.8591 20.3225L11.8727 20.3078C12.5353 19.5969 12.9388 18.6657 12.9388 17.6566V15.3771C13.4762 15.6969 14.0833 15.8708 14.6958 15.8708H14.7557C15.572 15.8708 16.3108 15.5789 16.9058 15.1533L16.9179 15.1446L16.9294 15.1351C17.5196 14.6425 17.9947 13.9953 18.1992 13.1908C18.3937 12.4257 18.3979 11.6463 18.1377 10.8642C17.9781 10.1448 17.6212 9.59419 17.1935 9.18328C17.6534 8.76873 17.9843 8.23555 18.1903 7.62776C18.4579 6.83834 18.4554 6.0516 18.2591 5.2794C18.0546 4.47493 17.5795 3.82767 16.9893 3.33511C16.3614 2.81113 15.544 2.59937 14.8157 2.59937H9.30333ZM14.7557 4.49222C15.0822 4.49222 15.2714 4.50133 15.4055 4.57328L15.4208 4.58151L15.4368 4.58838C15.7226 4.711 15.8732 4.80332 15.9857 4.96426L16.0184 5.01098L16.0628 5.04672C16.2119 5.1667 16.3013 5.33278 16.4181 5.64624C16.5265 5.93701 16.5727 6.14577 16.5727 6.40651C16.5727 6.68356 16.5202 6.94469 16.4304 7.13755C16.3342 7.34399 16.1889 7.55759 16.0184 7.80202C15.7966 7.98011 15.6049 8.13008 15.4213 8.23116C15.2116 8.31692 14.9951 8.3208 14.7557 8.3208H12.9388V4.49222H14.7557ZM8.09803 5.0721C8.38229 4.76711 8.82151 4.55081 9.2683 4.49222H11.0603V8.19222H9.24341C8.82894 8.19222 8.40352 7.99291 8.11792 7.63542L8.09877 7.61143L8.07617 7.59066C7.7637 7.3033 7.60623 6.84736 7.60623 6.34223C7.60623 5.86569 7.80698 5.38436 8.09803 5.0721ZM14.7557 10.1494C15.0822 10.1494 15.2714 10.1585 15.4055 10.2305L15.4208 10.2387L15.4368 10.2456C15.7226 10.3682 15.8732 10.4605 15.9857 10.6214L16.0184 10.6682L16.0628 10.7039C16.2119 10.8239 16.3013 10.99 16.4181 11.3034L16.4237 11.3183L16.4304 11.3327C16.5202 11.5255 16.5727 11.7866 16.5727 12.0637C16.5727 12.3407 16.5202 12.6019 16.4304 12.7947C16.3342 13.0012 16.1889 13.2148 16.0184 13.4592C15.8236 13.6157 15.6519 13.7504 15.4885 13.8494H14.6958C14.2813 13.8494 13.8559 13.6501 13.5703 13.2926C13.2485 12.8898 13.0586 12.4609 13.0586 11.9994C13.0586 11.5229 13.2594 11.0415 13.5504 10.7293L13.5608 10.7181L13.5703 10.7062C13.8339 10.3763 14.2445 10.2098 14.7203 10.1494H14.7557ZM8.0381 10.665C8.36998 10.3089 8.79642 10.1494 9.30333 10.1494H11.1202V13.8494H9.30333C8.82793 13.8494 8.38602 13.6478 8.02766 13.3226C7.67791 12.942 7.4864 12.4637 7.4864 11.9994C7.4864 11.5305 7.68172 11.0474 8.0381 10.665ZM7.98076 16.1968C8.20252 16.0187 8.39427 15.8687 8.57788 15.7676C8.78759 15.6819 9.00406 15.678 9.24341 15.678H11.0603V17.5923C11.0603 18.1373 10.8577 18.604 10.5305 18.905L10.5191 18.9154L10.5086 18.9267C10.1767 19.2828 9.75032 19.4423 9.24341 19.4423C8.91695 19.4423 8.7278 19.4332 8.59367 19.3612L8.57833 19.353L8.56233 19.3461C8.27295 19.2219 8.09839 19.1199 7.97818 18.991L7.95865 18.97L7.93634 18.9521C7.78724 18.8321 7.6979 18.666 7.58103 18.3525L7.5755 18.3377L7.5688 18.3233C7.47892 18.1304 7.42648 17.8693 7.42648 17.5923C7.42648 17.3152 7.47892 17.0541 7.5688 16.8612C7.665 16.6548 7.81021 16.4412 7.98076 16.1968Z" fill="#616161"/>
</svg>
