<svg width="24" height="24" viewBox="0 0 24 24" fill="none" xmlns="http://www.w3.org/2000/svg">
<path d="M7.56453 7.77861C7.41829 7.63229 7.22366 7.55176 7.01661 7.55176H3.15176C2.94471 7.55176 2.75007 7.63229 2.60383 7.77861C2.45754 7.92492 2.37695 8.11952 2.37695 8.3266V19.9226C2.37695 20.1297 2.45754 20.3243 2.60383 20.4706C2.75013 20.6169 2.94471 20.6975 3.15176 20.6975H7.01661C7.22366 20.6975 7.41829 20.6169 7.56453 20.4706C7.71077 20.3244 7.79141 20.1297 7.79141 19.9226V8.3266C7.79141 8.11952 7.71083 7.92492 7.56453 7.77861ZM6.2418 9.10151V19.1477H3.92657V9.10151H6.2418Z" fill="#616161"/>
<path d="M7.57601 3.0471C7.5074 2.88597 7.42425 2.73314 7.3273 2.58955C7.23029 2.44602 7.11947 2.31174 6.9955 2.18776C6.48205 1.67418 5.80141 1.39136 5.07901 1.39136C4.71357 1.39136 4.35788 1.46398 4.02174 1.60718C3.69958 1.74442 3.4105 1.93974 3.16251 2.18776C2.649 2.70128 2.36621 3.382 2.36621 4.10449C2.36621 4.46997 2.43883 4.8257 2.582 5.16189C2.71922 5.48409 2.91453 5.77321 3.16251 6.02123C3.67597 6.5348 4.3566 6.81757 5.07901 6.81757C5.44444 6.81757 5.80013 6.745 6.13627 6.6018C6.45843 6.46457 6.74752 6.26924 6.9955 6.02123C7.50901 5.5077 7.7918 4.82698 7.7918 4.10449C7.7918 3.73901 7.71919 3.38328 7.57601 3.0471ZM5.08458 5.26225C4.92848 5.26225 4.77706 5.23151 4.63438 5.17085C4.49677 5.11237 4.37309 5.02877 4.26672 4.92245C4.16041 4.81607 4.07682 4.69237 4.01829 4.55468C3.9577 4.41205 3.92696 4.26055 3.92696 4.10449C3.92696 3.94843 3.9577 3.79694 4.01829 3.65424C4.07682 3.51662 4.16041 3.39292 4.26672 3.28654C4.37309 3.18021 4.49677 3.09661 4.63444 3.03807C4.77706 2.97748 4.92848 2.94668 5.08458 2.94668C5.24067 2.94668 5.39209 2.97748 5.53471 3.03807C5.67238 3.09661 5.79606 3.18021 5.90243 3.28654C6.00874 3.39292 6.09233 3.51662 6.15086 3.65424C6.21145 3.79694 6.24219 3.94837 6.24219 4.10449C6.24219 4.18252 6.23451 4.25944 6.21925 4.33463C6.20399 4.40982 6.18116 4.48334 6.15086 4.55468C6.09233 4.69237 6.00874 4.81607 5.90243 4.92245C5.79606 5.02877 5.67238 5.11237 5.53471 5.17085C5.39209 5.23151 5.24067 5.26225 5.08458 5.26225Z" fill="#616161"/>
<path d="M21.9143 12.471C21.8834 12.0901 21.8368 11.7415 21.7742 11.4197C21.7014 11.0461 21.6043 10.6974 21.4856 10.3834C21.3567 10.0422 21.197 9.7278 21.0111 9.44887C20.8092 9.14611 20.5707 8.87603 20.3021 8.64628C20.0227 8.40734 19.7029 8.20512 19.3515 8.04527C18.9946 7.88297 18.5943 7.75955 18.1618 7.6784C17.7256 7.59658 17.2422 7.55509 16.7249 7.55509C16.269 7.55509 15.8245 7.60677 15.4039 7.70875C15.0091 7.80449 14.6336 7.94474 14.2878 8.12569C14.1649 8.18947 14.0454 8.2582 13.93 8.33127V8.32993C13.93 8.12285 13.8495 7.92825 13.7032 7.78194C13.5569 7.63562 13.3623 7.55509 13.1552 7.55509H10.1042V7.54395H9.59108C9.38403 7.54395 9.1894 7.62448 9.04315 7.7708C8.89686 7.91711 8.81628 8.11171 8.81628 8.31879V19.9147C8.81628 20.1219 8.89686 20.3165 9.04315 20.4628C9.18945 20.6091 9.38403 20.6896 9.59108 20.6896H13.3056C13.5127 20.6896 13.7073 20.609 13.8535 20.4628C13.9998 20.3165 14.0804 20.1219 14.0804 19.9147V14.3173C14.0804 13.947 14.1009 13.643 14.1431 13.3881C14.1903 13.1031 14.263 12.8802 14.3655 12.7068C14.4607 12.5456 14.5851 12.4272 14.7458 12.3449C14.9461 12.2424 15.2129 12.1904 15.5387 12.1904C15.8226 12.1904 16.0475 12.243 16.2071 12.3468C16.3341 12.4295 16.4306 12.5521 16.5021 12.7214L16.5029 12.7236C16.5843 12.916 16.638 13.1647 16.6672 13.484C16.6942 13.7792 16.6964 14.0814 16.6964 14.4175V19.9203C16.6964 20.1274 16.7769 20.322 16.9232 20.4684C17.0695 20.6146 17.2641 20.6952 17.4712 20.6952H21.1857C21.3927 20.6952 21.5873 20.6146 21.7336 20.4684C21.8799 20.322 21.9605 20.1274 21.9605 19.9203V13.7157C21.9605 13.265 21.9452 12.8519 21.9143 12.471ZM18.2018 13.3098C18.1571 12.8487 18.0674 12.463 17.9278 12.131C17.8824 12.0223 17.8316 11.9189 17.7759 11.8213C17.7202 11.7238 17.6594 11.6321 17.5941 11.5471C17.4481 11.3568 17.2753 11.194 17.0804 11.0632C16.8752 10.9255 16.6414 10.8205 16.3857 10.7512C16.1284 10.6815 15.8415 10.6462 15.5332 10.6462C14.9581 10.6462 14.4546 10.7538 14.0369 10.9661C13.6138 11.1811 13.2731 11.5055 13.0243 11.9304C12.8312 12.2606 12.6984 12.6428 12.6179 13.0989C12.5556 13.453 12.5252 13.8551 12.5252 14.3284V19.151H10.3659V9.10484H12.3749V10.1567C12.3749 10.3638 12.4554 10.5585 12.6017 10.7048C12.748 10.851 12.9426 10.9316 13.1497 10.9316H13.1998C13.3415 10.9316 13.4803 10.8929 13.6011 10.8195C13.7137 10.7511 13.8079 10.6543 13.8737 10.5392L13.8752 10.5364C13.9809 10.3485 14.1292 10.1608 14.3041 9.99369C14.5036 9.80277 14.7361 9.63807 14.9953 9.50396L14.9981 9.50251C15.235 9.37775 15.4941 9.28078 15.7683 9.21428C16.0677 9.14165 16.3877 9.10484 16.7194 9.10484C17.1256 9.10484 17.4997 9.13518 17.8314 9.19505C18.1416 9.25114 18.4235 9.33458 18.6692 9.44325C18.8974 9.54411 19.1021 9.67031 19.2778 9.8183C19.4446 9.95876 19.5923 10.1251 19.717 10.3127C19.8418 10.5005 19.9505 10.7187 20.04 10.9611C20.1273 11.1978 20.1996 11.4662 20.2547 11.7591C20.356 12.2968 20.4053 12.9386 20.4053 13.7213V19.151H18.2404V14.4231C18.2404 14.0319 18.2375 13.6782 18.2018 13.3098Z" fill="#616161"/>
</svg>
