<svg width="60" height="60" viewBox="0 0 60 60" fill="none" xmlns="http://www.w3.org/2000/svg">
<circle cx="30" cy="30" r="30" fill="#33475B"/>
<g clip-path="url(#clip0_13_94)">
<path fill-rule="evenodd" clip-rule="evenodd" d="M44.7162 18.489C44.4616 16.9136 43.5114 15.965 41.9805 15.7485C41.9432 15.7395 38.2151 15.0244 32.3643 15.0244C26.5151 15.0244 22.787 15.7395 22.7619 15.7452C21.5643 15.9155 20.7292 16.5293 20.2954 17.5225C22.8025 17.2454 25.3233 17.1092 27.8457 17.1147C33.5165 17.1147 37.2892 17.7666 37.843 17.8687C40.3395 18.2433 42.0754 19.9752 42.4954 22.5131C42.677 23.3401 43.2511 26.2477 43.2511 29.7187C43.2511 31.5771 43.0841 33.2823 42.9041 34.5852C43.8932 34.1668 44.516 33.3285 44.7122 32.1171C44.7187 32.0871 45.4362 29.0247 45.4362 25.2941C45.4362 21.5644 44.7187 18.502 44.7146 18.4882" fill="white"/>
<path fill-rule="evenodd" clip-rule="evenodd" d="M40.1976 22.9135C39.943 21.3373 38.9919 20.3886 37.4619 20.1713C37.4246 20.1632 33.6965 19.4497 27.8465 19.4497C21.9973 19.4497 18.2684 20.1632 18.244 20.1697C16.7011 20.3886 15.7508 21.3373 15.5003 22.8965C15.4921 22.9265 14.7754 25.9889 14.7754 29.7194C14.7754 33.4492 15.4921 36.5116 15.4962 36.5246C15.7508 38.1008 16.7011 39.0494 18.2319 39.2667C18.2619 39.2724 20.6805 39.7354 24.664 39.9162L27.0381 44.0286C27.12 44.1706 27.2378 44.2885 27.3797 44.3704C27.5216 44.4524 27.6826 44.4955 27.8465 44.4955C28.0103 44.4955 28.1713 44.4524 28.3132 44.3704C28.4551 44.2885 28.573 44.1706 28.6549 44.0286L31.0297 39.917C35.0132 39.7354 37.4294 39.2732 37.4497 39.2684C38.9919 39.0494 39.943 38.1008 40.1935 36.5416C40.2016 36.5116 40.9176 33.4492 40.9176 29.7194C40.9176 25.9889 40.2008 22.9265 40.1976 22.9135Z" fill="white"/>
</g>
<defs>
<clipPath id="clip0_13_94">
<rect width="32" height="30" fill="white" transform="translate(14 15)"/>
</clipPath>
</defs>
</svg>
