<svg width="20" height="15" viewBox="0 0 20 15" fill="none" xmlns="http://www.w3.org/2000/svg">
<path d="M0.25 2.65C0.25 1.32437 1.32438 0.25 2.65 0.25H17.05C18.3737 0.25 19.45 1.32437 19.45 2.65V12.25C19.45 13.5737 18.3737 14.65 17.05 14.65H2.65C1.32438 14.65 0.25 13.5737 0.25 12.25V2.65ZM1.45 2.65V4.14625L8.78501 9.5237C9.41871 9.9887 10.2812 9.9887 10.915 9.5237L18.25 4.14625V2.65C18.25 1.98625 17.7137 1.45 17.05 1.45H2.61625C1.98738 1.45 1.41625 1.98625 1.41625 2.65H1.45ZM1.45 5.635V12.25C1.45 12.9137 1.98738 13.45 2.65 13.45H17.05C17.7137 13.45 18.25 12.9137 18.25 12.25V5.635L11.6237 10.4912C10.5662 11.2675 9.13371 11.2675 8.07621 10.4912L1.45 5.635Z" fill="#616161" stroke="#616161" stroke-width="0.5"/>
</svg>
