<svg width="24" height="19" viewBox="0 0 24 19" fill="none" xmlns="http://www.w3.org/2000/svg">
<path d="M15.3079 8.38821L10.3579 5.08818C10.2336 5.00527 10.0892 4.95765 9.93988 4.95042C9.79068 4.9432 9.64228 4.97662 9.51061 5.04713C9.3789 5.11764 9.26881 5.2226 9.19209 5.35079C9.11537 5.47898 9.0749 5.6256 9.075 5.77499V12.375C9.0749 12.5244 9.11537 12.671 9.19209 12.7992C9.26881 12.9274 9.3789 13.0323 9.51061 13.1028C9.64228 13.1734 9.79068 13.2068 9.93988 13.1996C10.0892 13.1923 10.2336 13.1447 10.3579 13.0618L15.3079 9.76181C15.4211 9.68651 15.5139 9.58441 15.578 9.46461C15.6422 9.34471 15.6758 9.21091 15.6758 9.07501C15.6758 8.93911 15.6422 8.80521 15.578 8.68541C15.5139 8.56561 15.4211 8.46351 15.3079 8.38821ZM10.725 10.8333V7.32191L13.363 9.07501L10.725 10.8333ZM22.5153 3.04424C22.4181 2.66407 22.232 2.31245 21.9721 2.01839C21.7123 1.72433 21.3863 1.49626 21.021 1.35299C17.4859 -0.0123762 11.8594 3.92757e-06 11.55 3.92757e-06C11.2406 3.92757e-06 5.61412 -0.0123762 2.079 1.35299C1.71369 1.49626 1.38768 1.72433 1.12787 2.01839C0.868061 2.31245 0.681891 2.66407 0.584721 3.04424C0.317625 4.07343 0 5.95443 0 9.07501C0 12.1955 0.317625 14.0765 0.584721 15.1057C0.681741 15.4861 0.867851 15.8379 1.12767 16.1322C1.38749 16.4264 1.71357 16.6546 2.079 16.798C5.46562 18.1046 10.7663 18.15 11.482 18.15H11.6181C12.3338 18.15 17.6375 18.1046 21.021 16.798C21.3864 16.6546 21.7125 16.4264 21.9723 16.1322C22.2322 15.8379 22.4183 15.4861 22.5153 15.1057C22.7824 14.0745 23.1 12.1955 23.1 9.07501C23.1 5.95443 22.7824 4.07343 22.5153 3.04424ZM20.9179 14.6974C20.8865 14.8239 20.8255 14.9412 20.74 15.0396C20.6545 15.138 20.5469 15.2147 20.426 15.2635C17.1621 16.5237 11.6109 16.501 11.5572 16.501H11.55C11.4943 16.501 5.94722 16.5216 2.68125 15.2635C2.56036 15.2147 2.45275 15.138 2.36724 15.0396C2.28174 14.9412 2.22077 14.8239 2.18934 14.6974C1.93875 13.7558 1.65 12.0213 1.65 9.07501C1.65 6.12871 1.93875 4.39415 2.18212 3.45778C2.21297 3.3305 2.27367 3.2124 2.35921 3.11323C2.44474 3.01406 2.55266 2.93669 2.67403 2.88749C5.82141 1.67165 11.0952 1.64999 11.5273 1.64999H11.5552C11.6109 1.64999 17.1631 1.63143 20.4239 2.88749C20.5448 2.93629 20.6524 3.01303 20.7379 3.11144C20.8234 3.20985 20.8844 3.32713 20.9158 3.45365C21.1613 4.39415 21.45 6.12871 21.45 9.07501C21.45 12.0213 21.1613 13.7558 20.9179 14.6922V14.6974Z" fill="#616161"/>
</svg>
